<?xml version="1.0" standalone="no"?>
<!DOCTYPE svg PUBLIC "-//W3C//DTD SVG 20010904//EN"
 "http://www.w3.org/TR/2001/REC-SVG-20010904/DTD/svg10.dtd">
<svg version="1.0" xmlns="http://www.w3.org/2000/svg"
 width="2202.000000pt" height="1158.000000pt" viewBox="0 0 2202.000000 1158.000000"
 preserveAspectRatio="xMidYMid meet">

<g transform="translate(0.000000,1158.000000) scale(0.100000,-0.100000)"
fill="#000000" stroke="none">
<path d="M4435 9680 c-156 -15 -257 -62 -350 -162 -68 -74 -97 -126 -145 -262
l-30 -84 0 -657 c0 -630 1 -660 21 -737 31 -122 73 -200 145 -267 73 -68 132
-103 234 -138 l75 -26 583 -4 583 -5 29 -39 c27 -38 28 -44 35 -205 9 -201 0
-266 -45 -306 l-30 -28 -583 -1 c-631 -1 -1021 -9 -1034 -22 -11 -11 -11 -943
0 -954 5 -4 453 -7 995 -7 l987 2 80 26 c226 75 349 215 407 466 17 78 20 136
24 690 5 523 4 614 -10 670 -54 230 -74 276 -161 365 -67 69 -114 97 -225 131
-74 23 -86 24 -657 30 l-582 7 -33 34 -33 34 0 197 0 197 29 37 28 38 774 2
c676 3 776 5 784 18 13 20 13 930 0 950 -8 13 -121 15 -912 16 -497 1 -939 -2
-983 -6z"/>
<path d="M6955 8790 l-140 -5 -3 -1675 c-2 -921 0 -1807 4 -1967 l6 -293 388
0 387 0 7 442 c4 243 11 449 16 458 8 15 62 17 587 24 572 7 579 7 653 31 114
36 159 62 225 129 64 66 121 163 151 261 18 57 19 113 19 1085 0 1144 5 1058
-71 1217 -39 82 -124 174 -199 217 -68 38 -172 66 -280 76 -98 9 -1522 9
-1750 0z m1455 -922 c16 -13 32 -30 36 -38 9 -21 18 -899 9 -1003 -5 -71 -11
-92 -33 -121 l-27 -35 -301 -1 c-165 0 -342 3 -392 6 l-92 7 0 591 c0 325 4
596 8 603 12 18 83 21 435 17 323 -4 329 -4 357 -26z"/>
<path d="M9825 8793 c-55 -2 -92 -9 -97 -16 -4 -7 -8 -204 -8 -439 l0 -428 23
-4 c12 -3 344 -7 736 -9 l715 -4 29 -34 c28 -34 28 -35 25 -151 -2 -64 -6
-119 -10 -123 -3 -4 -15 -2 -26 4 -14 8 -203 11 -597 11 -470 0 -581 -3 -603
-14 -15 -7 -43 -17 -62 -21 -80 -17 -200 -129 -256 -238 -68 -133 -99 -389
-90 -753 3 -139 11 -276 17 -305 36 -179 69 -252 157 -343 57 -58 106 -91 181
-119 55 -21 68 -22 840 -24 768 -3 785 -3 826 17 23 11 51 20 63 20 78 0 229
128 285 243 88 176 91 224 84 1307 -6 860 -7 898 -27 979 -55 224 -185 360
-402 420 -75 21 -96 22 -895 25 -450 2 -858 2 -908 -1z m1409 -1808 c16 -12
18 -29 18 -145 0 -113 -2 -133 -18 -151 -19 -21 -26 -21 -406 -17 -300 2 -390
6 -400 16 -19 19 -18 273 1 295 12 15 52 17 400 17 317 -1 389 -3 405 -15z"/>
<path d="M13040 8791 c-156 -8 -253 -33 -338 -88 -105 -70 -186 -188 -226
-330 l-26 -93 -3 -997 c-2 -997 -2 -998 20 -1078 30 -112 56 -166 115 -236 63
-76 144 -129 249 -163 l80 -26 765 0 764 0 0 429 c0 236 -3 436 -6 445 -6 14
-64 16 -563 16 l-558 0 -20 23 c-45 49 -47 62 -53 327 -3 140 -3 372 0 515 5
244 7 263 27 302 13 23 28 45 34 49 6 4 258 9 559 13 302 3 552 10 557 14 4 5
8 199 8 432 0 334 -3 427 -13 437 -10 10 -137 13 -625 14 -337 1 -673 -2 -747
-5z"/>
<path d="M15335 8791 c-317 -15 -478 -142 -559 -443 l-27 -96 -2 -954 c-1
-934 -1 -955 19 -1048 42 -189 131 -321 267 -398 113 -64 109 -63 822 -74 358
-6 777 -7 932 -3 l281 7 7 123 c9 156 2 741 -8 752 -5 4 -331 9 -725 11 -805
3 -736 -5 -775 81 -14 32 -20 68 -20 132 -1 101 6 115 49 98 21 -8 181 -12
574 -12 476 0 553 2 610 17 162 41 275 130 335 261 72 159 70 141 70 640 l0
450 -28 85 c-59 177 -168 287 -345 347 l-77 26 -635 2 c-349 1 -693 -1 -765
-4z m983 -898 c72 -8 82 -28 82 -170 0 -82 -4 -114 -16 -131 l-15 -22 -395 0
-395 0 -15 36 c-10 24 -15 69 -15 126 0 113 17 150 77 159 53 8 626 10 692 2z"/>
<path d="M9995 5460 c-197 -8 -223 -12 -368 -51 -246 -66 -513 -164 -621 -227
-32 -19 -103 -54 -158 -78 -134 -58 -184 -87 -383 -222 -229 -156 -354 -252
-516 -398 -288 -262 -516 -552 -651 -831 l-72 -148 -3 -180 c-4 -209 2 -286
21 -279 9 3 15 -7 19 -29 11 -71 103 -244 169 -319 125 -143 170 -186 229
-223 32 -20 74 -50 92 -66 48 -45 113 -80 134 -73 13 4 15 3 4 -4 -10 -7 6
-18 60 -44 41 -19 90 -40 109 -46 50 -16 188 -40 293 -52 111 -13 405 3 562
30 179 31 780 204 769 222 -5 8 9 12 33 9 7 -1 32 9 55 23 24 14 99 47 168 74
277 109 415 173 475 217 16 13 49 32 73 44 39 20 43 20 49 5 3 -9 -1 -36 -10
-60 -9 -24 -12 -46 -7 -49 4 -3 11 1 13 7 3 7 6 -2 6 -19 1 -18 -4 -33 -10
-33 -7 0 -9 -13 -5 -37 4 -21 7 -50 7 -65 0 -30 19 -50 20 -21 0 13 3 12 10
-7 6 -13 7 -35 4 -47 -7 -28 20 -73 44 -73 12 0 13 -2 3 -9 -10 -6 -7 -14 12
-32 14 -13 26 -30 26 -37 0 -17 16 -32 57 -54 35 -20 47 -23 38 -8 -3 6 -4 14
-1 18 6 10 106 -83 106 -98 0 -13 55 -13 104 1 23 6 41 7 45 2 12 -19 43 -23
64 -8 12 8 35 15 53 15 40 0 48 9 28 31 -16 17 -15 18 17 7 19 -6 48 -13 66
-15 26 -4 31 -2 30 14 -2 15 6 18 51 19 29 0 58 6 64 12 7 7 21 12 33 12 12 0
30 7 41 15 10 8 27 15 36 15 9 0 37 14 61 30 25 17 50 30 57 30 6 0 9 4 5 9
-7 12 30 33 49 29 8 -2 33 13 57 32 24 19 46 35 49 35 3 0 17 11 31 25 14 14
51 47 82 75 32 27 57 55 57 63 0 8 6 12 15 8 9 -3 15 0 15 9 0 8 -5 15 -12 15
-6 0 -3 8 7 20 10 11 23 17 29 13 6 -3 8 -3 4 2 -4 4 -3 14 3 22 9 9 8 13 0
13 -19 0 -12 17 8 23 15 4 18 11 14 27 -4 15 -2 21 5 16 6 -3 14 -1 18 5 4 8
3 9 -4 5 -18 -11 -15 5 13 62 14 29 25 69 25 89 0 21 4 45 10 53 6 9 5 17 -2
21 -7 5 -4 21 11 51 11 24 21 54 21 65 0 30 51 183 62 183 4 0 8 5 8 11 0 5
-4 8 -9 4 -6 -3 -8 16 -5 47 10 115 11 204 2 214 -5 7 -8 16 -7 20 3 20 -2 35
-10 30 -5 -3 -21 24 -37 60 -23 55 -42 79 -111 143 -46 41 -98 83 -116 92 -18
10 -31 21 -29 25 2 5 -2 10 -9 13 -7 2 -9 -1 -5 -8 12 -18 -5 -13 -53 18 -59
38 -240 85 -296 77 -22 -3 -79 -10 -127 -15 -187 -21 -424 -149 -634 -342 -98
-89 -360 -392 -419 -481 -38 -60 5 -23 79 66 90 111 261 277 349 343 69 50
162 100 280 149 43 17 73 34 65 38 -7 3 -1 3 14 0 16 -4 45 2 72 15 25 11 46
16 46 11 0 -5 19 -2 43 6 49 18 227 20 257 4 14 -7 25 -7 37 0 25 15 115 -23
107 -45 -5 -11 1 -15 22 -15 44 -1 159 -63 157 -85 -1 -11 9 -21 28 -28 18 -7
28 -18 27 -27 -2 -9 12 -35 30 -58 19 -23 28 -42 22 -42 -6 0 -10 -6 -7 -12 2
-7 10 -12 17 -10 9 2 11 -4 6 -20 -3 -13 -6 -29 -6 -36 0 -7 -5 -10 -11 -6
-11 6 -9 -9 8 -83 4 -17 1 -23 -11 -23 -11 0 -16 -9 -16 -26 0 -14 -4 -23 -9
-20 -5 4 -12 -13 -16 -36 -8 -51 -55 -180 -95 -259 -18 -35 -27 -64 -23 -78 4
-16 2 -22 -8 -20 -24 4 -49 -12 -49 -31 0 -10 -13 -32 -30 -48 -38 -38 -39
-58 -2 -35 l27 18 -25 -31 c-20 -26 -30 -31 -53 -27 -26 5 -28 4 -25 -23 2
-24 -1 -29 -19 -30 -12 -1 -39 -14 -60 -30 -24 -18 -38 -24 -41 -16 -2 7 -8 9
-14 6 -6 -4 -5 -10 3 -15 11 -6 10 -9 -4 -15 -11 -4 -25 1 -37 11 -21 19 -42
13 -23 -6 16 -16 5 -39 -18 -39 -10 0 -19 -7 -19 -15 0 -9 -10 -15 -26 -15
-17 0 -28 -6 -31 -20 -4 -14 -9 -17 -22 -11 -9 5 -32 8 -51 6 -19 -2 -51 -4
-70 -5 -19 -1 -28 -4 -20 -7 8 -3 18 -11 22 -17 5 -8 8 -7 8 2 0 6 5 12 10 12
6 0 10 -7 10 -15 0 -11 -13 -13 -65 -10 -37 3 -65 0 -65 -5 0 -5 7 -7 16 -3
12 4 15 1 13 -12 -2 -10 -10 -20 -18 -23 -8 -3 -11 0 -7 6 4 7 -4 14 -19 18
-20 5 -30 2 -40 -14 -8 -11 -27 -22 -42 -25 l-27 -5 25 19 24 19 -42 -6 c-42
-6 -43 -6 -44 22 0 21 -2 24 -7 12 -9 -23 -27 -10 -36 25 -3 15 -11 27 -17 27
-6 0 -8 -9 -4 -20 3 -11 1 -28 -5 -37 -10 -16 -11 -15 -6 5 3 17 -5 34 -31 63
-19 21 -31 39 -25 39 6 0 16 -8 21 -17 9 -15 11 -12 11 17 0 19 0 72 1 118 1
51 -3 88 -10 95 -14 14 -15 67 -1 67 17 0 46 53 32 58 -20 6 -14 29 16 64 16
18 41 54 56 81 23 38 26 50 16 62 -10 12 -10 15 1 15 13 1 80 77 87 100 7 20
-20 9 -43 -17 -13 -16 -25 -23 -25 -16 0 11 137 153 147 153 2 0 1 -6 -3 -12
-4 -7 11 4 32 25 29 28 36 40 26 46 -10 6 -9 13 7 32 l20 24 -6 -24 -6 -24 44
27 c24 14 43 30 42 35 -1 5 18 16 42 25 30 12 42 22 38 32 -3 9 7 19 30 29 20
8 40 20 44 27 4 7 19 13 33 13 15 0 24 5 22 13 -1 7 9 12 26 12 32 0 72 25 72
45 0 20 -47 54 -88 61 -22 4 -53 1 -84 -9 -26 -8 -48 -11 -48 -7 0 11 -97 -17
-127 -36 -27 -17 -37 -18 -27 -3 10 17 -48 -22 -69 -45 -10 -12 -15 -14 -11
-6 8 15 -33 -14 -48 -35 -4 -5 -8 -6 -8 -2 0 4 -9 3 -20 -3 -11 -6 -18 -15
-16 -19 3 -4 -19 -23 -48 -42 -30 -18 -60 -43 -66 -54 -13 -20 -13 -20 11 0
13 10 -11 -15 -53 -57 -43 -41 -78 -80 -78 -87 0 -6 -18 -29 -39 -50 -39 -39
-150 -244 -165 -303 -4 -18 -22 -38 -47 -53 -108 -69 -370 -182 -390 -169 -7
4 -9 3 -6 -3 8 -13 -70 -46 -85 -37 -7 4 -8 2 -4 -4 7 -11 -7 -16 -41 -15 -7
1 -11 -3 -8 -7 10 -17 -351 -145 -465 -165 -19 -3 -38 -11 -42 -18 -4 -7 -8
-9 -8 -5 0 4 -28 -3 -63 -16 -35 -13 -88 -26 -118 -30 -67 -9 -134 -25 -324
-81 -145 -42 -312 -69 -290 -47 6 6 30 12 55 14 25 3 -20 3 -99 2 -141 -2
-144 -1 -169 23 -16 16 -44 28 -81 35 -31 6 -67 16 -80 22 l-23 11 23 6 c17 5
11 7 -23 8 -27 1 -48 6 -48 11 0 6 -12 16 -26 22 -23 11 -24 13 -7 19 16 7 16
8 -4 8 -12 1 -24 5 -28 11 -3 5 -13 6 -22 3 -10 -4 -14 -2 -9 5 3 6 -3 13 -14
17 -11 3 -20 15 -20 26 0 14 -9 21 -30 26 -17 3 -39 16 -49 29 -21 27 -33 31
-25 10 3 -8 1 -17 -5 -21 -6 -3 -11 0 -11 8 0 19 -45 48 -63 42 -7 -3 -27 1
-43 10 -24 12 -25 15 -9 16 15 0 13 3 -10 12 -56 22 -73 37 -80 67 -4 16 -11
30 -17 30 -6 0 -8 -7 -4 -15 6 -16 -3 -19 -28 -9 -14 6 -15 8 -2 18 24 18 23
59 -2 84 -22 22 -31 82 -12 82 6 0 4 10 -4 23 -10 14 -14 39 -11 70 2 26 0 45
-5 42 -4 -3 -11 7 -15 22 -4 19 -2 29 9 35 18 10 21 43 6 53 -5 3 -10 -2 -11
-12 0 -11 -3 -13 -6 -5 -2 6 -9 10 -14 6 -5 -3 -9 9 -9 26 0 18 4 29 10 25 6
-3 10 -1 10 5 0 7 7 9 16 6 12 -5 14 -1 8 17 -4 12 -10 23 -15 25 -5 2 0 16
11 30 21 29 44 150 34 176 -8 21 14 84 39 109 l20 20 -6 -23 c-14 -52 13 0 32
64 12 38 26 76 33 83 9 11 7 12 -7 7 -11 -5 1 18 31 58 50 66 65 78 44 36 -12
-26 -16 -29 53 54 20 25 37 49 37 54 0 11 95 138 133 178 30 32 33 42 16 48
-7 2 7 19 31 38 34 27 40 30 31 12 -6 -12 -8 -22 -3 -22 11 0 22 34 22 65 0
22 82 107 140 145 19 13 53 41 76 62 40 38 64 54 159 104 28 15 51 30 53 35 2
5 21 19 43 31 21 12 39 27 39 34 0 19 60 57 94 60 17 1 25 0 18 -3 -7 -3 -27
-19 -45 -35 l-32 -31 34 19 c18 11 41 28 50 39 9 11 30 28 46 37 16 9 31 22
34 29 3 9 -5 8 -22 -4 -21 -14 -27 -14 -27 -4 0 13 65 50 262 149 70 35 194
79 268 93 19 4 63 20 96 36 34 16 77 29 96 29 19 0 39 5 44 10 6 6 39 11 75
11 40 1 57 4 44 9 -28 11 63 24 116 17 29 -4 39 -2 39 9 0 8 5 14 10 14 6 0
10 -5 10 -11 0 -12 61 -2 70 11 3 4 41 8 85 10 44 1 100 2 125 3 107 3 195
-11 260 -41 36 -17 83 -38 104 -46 22 -9 37 -19 33 -22 -3 -3 -26 3 -51 15
-61 27 -59 18 3 -14 71 -36 78 -50 73 -147 -2 -46 -5 -117 -7 -158 -2 -42 -10
-93 -19 -114 -8 -20 -15 -40 -14 -44 2 -9 -13 -74 -19 -86 -3 -4 -9 -2 -14 5
-6 10 -9 11 -9 2 0 -7 1 -14 3 -16 1 -2 -17 -25 -41 -52 -23 -27 -41 -54 -38
-61 3 -7 -4 -16 -15 -19 -11 -4 -50 -34 -87 -68 -107 -97 -128 -115 -113 -92
8 11 -7 -2 -32 -29 -45 -46 -59 -76 -37 -76 19 0 10 -21 -12 -30 l-23 -9 24 0
c21 -1 22 -3 10 -18 -13 -15 -12 -15 11 -3 22 12 24 12 12 -2 -7 -9 -11 -22
-9 -29 2 -8 2 -11 -1 -6 -2 4 -17 -4 -34 -18 -16 -14 -34 -25 -39 -25 -6 0 -9
-12 -7 -27 l3 -28 80 3 c120 4 181 37 323 175 61 61 112 106 112 101 0 -5 6 2
13 16 30 56 43 75 59 88 30 22 132 185 167 265 19 42 37 77 41 77 5 0 13 39
20 87 14 98 7 216 -15 249 -10 16 -11 24 -3 26 7 3 5 13 -7 31 -9 15 -20 25
-25 22 -4 -2 -22 12 -41 31 -97 101 -252 187 -401 223 -231 56 -272 60 -493
51z m444 -126 c8 -2 11 -7 9 -10 -6 -6 -78 22 -78 30 0 3 12 1 28 -5 15 -5 33
-12 41 -15z m86 -74 c8 -13 -5 -13 -25 0 -13 8 -13 10 2 10 9 0 20 -4 23 -10z
m255 -374 c0 -3 -4 -8 -10 -11 -5 -3 -10 -1 -10 4 0 6 5 11 10 11 6 0 10 -2
10 -4z m-2120 -166 c0 -5 -5 -10 -11 -10 -5 0 -7 5 -4 10 3 6 8 10 11 10 2 0
4 -4 4 -10z m-612 -544 c-7 -13 -12 -15 -18 -6 -5 8 -18 -6 -39 -39 -17 -28
-31 -55 -31 -60 0 -4 -9 -16 -21 -27 -19 -17 -19 -15 5 40 14 32 26 64 26 71
0 7 17 27 37 44 34 29 38 30 44 14 4 -10 2 -26 -3 -37z m-112 -28 c-18 -26
-22 -17 -5 14 6 11 13 17 16 15 3 -3 -2 -16 -11 -29z m-35 -111 c-19 -18 -31
-26 -27 -19 13 22 -7 13 -44 -20 -32 -30 -32 -29 5 10 21 23 44 42 51 42 6 0
17 7 24 15 7 9 15 13 18 10 3 -3 -9 -20 -27 -38z m109 13 c0 -5 -5 -10 -11
-10 -5 0 -7 5 -4 10 3 6 8 10 11 10 2 0 4 -4 4 -10z m-210 -34 c0 -2 -8 -10
-17 -17 -16 -13 -17 -12 -4 4 13 16 21 21 21 13z m15 -92 c-28 -30 -34 -33
-25 -14 17 34 54 73 58 62 2 -6 -13 -27 -33 -48z m3761 41 c18 -9 23 -15 12
-15 -24 0 -48 11 -48 21 0 12 3 12 36 -6z m-76 -5 c13 -8 13 -10 -2 -10 -9 0
-20 5 -23 10 -8 13 5 13 25 0z m-3965 -124 c-26 -36 -49 -66 -51 -66 -3 0 16
31 43 69 26 39 49 68 51 67 2 -2 -18 -33 -43 -70z m4200 64 c3 -5 2 -10 -4
-10 -5 0 -13 5 -16 10 -3 6 -2 10 4 10 5 0 13 -4 16 -10z m-4015 -69 c0 -6 -4
-13 -10 -16 -5 -3 -10 -11 -10 -17 0 -7 6 -6 15 2 26 22 18 -18 -10 -52 -14
-16 -25 -25 -25 -19 0 18 -29 13 -38 -6 -4 -10 -7 -45 -6 -78 2 -61 -10 -91
-47 -128 -25 -23 -24 -7 1 36 12 20 23 59 25 91 4 60 11 77 58 148 30 46 47
59 47 39z m35 -61 c-4 -12 -9 -19 -12 -17 -3 3 -2 15 2 27 4 12 9 19 12 17 3
-3 2 -15 -2 -27z m35 -24 c0 -2 -8 -10 -17 -17 -16 -13 -17 -12 -4 4 13 16 21
21 21 13z m-99 -50 c14 8 10 -8 -6 -30 -19 -25 -28 -16 -19 20 4 16 9 23 12
16 2 -7 8 -10 13 -6z m3554 -46 c-3 -5 -11 -10 -16 -10 -6 0 -7 5 -4 10 3 6
11 10 16 10 6 0 7 -4 4 -10z m-30 -19 c6 -11 -33 -36 -42 -27 -3 3 2 9 11 12
14 5 15 9 4 15 -10 7 -9 9 4 9 9 0 19 -4 23 -9z m-3540 -51 c-7 -25 -14 -38
-14 -29 -1 18 20 82 25 77 2 -2 -3 -24 -11 -48z m3439 -15 c-20 -25 -38 -45
-40 -45 -2 0 9 20 24 45 15 25 33 45 40 45 8 0 -3 -20 -24 -45z m-3547 13 c-3
-8 -6 -5 -6 6 -1 11 2 17 5 13 3 -3 4 -12 1 -19z m156 -91 c3 -8 1 -20 -4 -28
-6 -10 -9 -7 -9 14 0 29 5 35 13 14z m3287 -7 c0 -5 -4 -10 -10 -10 -5 0 -10
5 -10 10 0 6 5 10 10 10 6 0 10 -4 10 -10z m-3341 -31 c-13 -26 -23 -18 -14
10 3 12 11 19 16 16 5 -4 5 -14 -2 -26z m4391 15 c0 -8 -5 -12 -10 -9 -6 4 -8
11 -5 16 9 14 15 11 15 -7z m-1091 -53 c-60 -55 -67 -51 -12 5 24 25 47 43 50
40 3 -3 -14 -24 -38 -45z m-3358 -8 c-9 -16 -10 -14 -11 12 0 21 3 26 11 18 8
-8 8 -16 0 -30z m-284 -105 c-2 -13 -4 -3 -4 22 0 25 2 35 4 23 2 -13 2 -33 0
-45z m282 -8 c0 -10 -4 -8 -10 5 -9 19 -7 -10 7 -85 4 -22 3 -23 -5 -5 -6 11
-10 14 -10 6 -1 -11 -4 -11 -18 0 -15 13 -15 10 -10 -36 4 -28 10 -67 13 -87
4 -25 2 -38 -5 -38 -6 0 -11 12 -11 28 0 15 -9 44 -20 65 -20 37 -30 98 -11
68 8 -12 11 -8 16 15 3 16 13 41 21 56 8 14 14 39 15 55 l1 28 13 -30 c8 -16
14 -37 14 -45z m-239 19 c0 -5 -4 -9 -10 -9 -5 0 -10 7 -10 16 0 8 5 12 10 9
6 -3 10 -10 10 -16z m3341 -22 c-10 -9 -11 -8 -5 6 3 10 9 15 12 12 3 -3 0
-11 -7 -18z m173 -9 c-4 -13 -12 -27 -19 -33 -6 -5 -24 -31 -39 -57 -15 -27
-29 -48 -31 -48 -6 0 6 73 17 103 6 15 13 26 15 23 3 -2 -1 -14 -7 -26 -23
-43 -2 -30 24 15 28 47 53 61 40 23z m36 14 c0 -5 -7 -17 -15 -28 -14 -18 -14
-17 -4 9 12 27 19 34 19 19z m1095 -2 c-3 -5 -11 -10 -16 -10 -6 0 -7 5 -4 10
3 6 11 10 16 10 6 0 7 -4 4 -10z m-4625 -166 c0 -8 -4 -12 -10 -9 -5 3 -10 10
-10 16 0 5 5 9 10 9 6 0 10 -7 10 -16z m223 -48 c3 -30 1 -43 -4 -35 -7 11 -9
10 -9 -3 0 -10 -5 -18 -11 -18 -6 0 -9 6 -6 14 3 7 9 35 13 62 8 54 10 52 17
-20z m-370 34 c3 -11 1 -18 -4 -14 -5 3 -9 12 -9 20 0 20 7 17 13 -6z m424
-62 c-3 -8 -6 -5 -6 6 -1 11 2 17 5 13 3 -3 4 -12 1 -19z m25 -40 c-9 -9 -12
-7 -12 12 0 19 3 21 12 12 9 -9 9 -15 0 -24z m4243 22 c-3 -5 -12 -10 -18 -10
-7 0 -6 4 3 10 19 12 23 12 15 0z m-25 -41 c0 -11 -4 -18 -9 -15 -5 4 -11 0
-14 -6 -2 -7 -7 -10 -10 -7 -6 5 19 49 29 49 2 0 4 -9 4 -21z m-4349 -22 c-10
-9 -11 -8 -5 6 3 10 9 15 12 12 3 -3 0 -11 -7 -18z m3219 -17 c0 -5 -4 -10
-10 -10 -5 0 -10 5 -10 10 0 6 5 10 10 10 6 0 10 -4 10 -10z m-30 -20 c0 -5
-2 -10 -4 -10 -3 0 -8 5 -11 10 -3 6 -1 10 4 10 6 0 11 -4 11 -10z m1050 0 c0
-5 -5 -10 -11 -10 -5 0 -7 5 -4 10 3 6 8 10 11 10 2 0 4 -4 4 -10z m-1090 -57
c0 -12 6 -34 12 -49 9 -20 10 -28 2 -31 -8 -3 -9 -15 -3 -41 11 -49 11 -64 -1
-57 -5 3 -12 22 -16 43 -4 20 -11 45 -16 55 -12 23 1 135 13 116 5 -8 9 -24 9
-36z m1164 12 c-6 -16 -24 -21 -24 -7 0 11 11 22 21 22 5 0 6 -7 3 -15z
m-4237 -52 c-3 -10 -5 -4 -5 12 0 17 2 24 5 18 2 -7 2 -21 0 -30z m4183 23 c0
-2 -8 -10 -17 -17 -16 -13 -17 -12 -4 4 13 16 21 21 21 13z m-4140 -26 c0 -5
-2 -10 -4 -10 -3 0 -8 5 -11 10 -3 6 -1 10 4 10 6 0 11 -4 11 -10z m2900 0 c0
-5 -2 -10 -4 -10 -3 0 -8 5 -11 10 -3 6 -1 10 4 10 6 0 11 -4 11 -10z m-2830
-100 c23 0 36 -18 22 -32 -13 -13 -115 79 -105 95 3 6 19 -6 36 -26 16 -21 37
-37 47 -37z m4016 33 c-8 -15 -15 -22 -16 -15 0 17 20 55 27 49 2 -3 -2 -18
-11 -34z m-86 2 c-7 -8 -18 -15 -24 -15 -6 0 -2 7 8 15 25 19 32 19 16 0z
m-980 -89 c-1 -21 -1 -21 -15 -2 -8 11 -15 29 -15 40 1 21 1 21 15 2 8 -11 15
-29 15 -40z m870 18 c-18 -21 -24 -10 -9 18 8 14 14 18 17 10 2 -7 -2 -19 -8
-28z m197 22 c-10 -8 -17 -16 -16 -18 6 -7 -17 -35 -35 -42 -19 -7 -19 -6 -1
14 18 20 18 20 -10 20 -16 0 -25 3 -21 7 6 6 65 25 96 31 3 1 -3 -5 -13 -12z
m36 -5 c-3 -11 -11 -22 -19 -25 -17 -7 -18 -1 -2 24 16 25 28 26 21 1z m-3995
-26 c-3 -3 -9 2 -12 12 -6 14 -5 15 5 6 7 -7 10 -15 7 -18z m2856 -21 c11 -28
6 -38 -9 -18 -8 10 -15 22 -15 27 0 13 18 7 24 -9z m-2569 -4 c3 -5 -1 -10 -9
-10 -9 0 -16 5 -16 10 0 6 4 10 9 10 6 0 13 -4 16 -10z m3579 -27 c4 -9 2 -21
-4 -27 -7 -7 -10 -5 -10 7 0 22 -16 22 -24 0 -6 -15 -8 -15 -16 -3 -14 22 -12
28 13 33 12 2 25 5 28 6 4 0 10 -7 13 -16z m-3744 -3 c0 -5 -2 -10 -4 -10 -3
0 -8 5 -11 10 -3 6 -1 10 4 10 6 0 11 -4 11 -10z m2780 -21 c0 -11 -4 -17 -10
-14 -5 3 -10 15 -10 26 0 11 5 17 10 14 6 -3 10 -15 10 -26z m-153 -4 c6 -14
8 -25 4 -25 -4 0 -13 11 -19 25 -6 14 -8 25 -4 25 4 0 12 -11 19 -25z m1023 5
c0 -5 -2 -10 -4 -10 -3 0 -8 5 -11 10 -3 6 -1 10 4 10 6 0 11 -4 11 -10z
m-822 -19 c3 -8 -1 -12 -9 -9 -7 2 -15 10 -17 17 -3 8 1 12 9 9 7 -2 15 -10
17 -17z m-2573 -11 c3 -5 -1 -10 -9 -10 -9 0 -16 5 -16 10 0 6 4 10 9 10 6 0
13 -4 16 -10z m-220 -20 c3 -5 1 -10 -4 -10 -6 0 -11 5 -11 10 0 6 2 10 4 10
3 0 8 -4 11 -10z m3575 0 c0 -12 -35 -31 -44 -23 -8 9 14 33 30 33 8 0 14 -4
14 -10z m-1883 -26 c-3 -3 -12 -4 -19 -1 -8 3 -5 6 6 6 11 1 17 -2 13 -5z
m1131 -49 c2 -2 7 -20 12 -40 8 -36 8 -36 -12 -19 -11 10 -15 20 -9 22 13 4
-21 40 -34 36 -17 -6 -46 23 -39 39 5 13 11 12 42 -9 20 -14 38 -27 40 -29z
m623 46 c-9 -6 -10 -10 -2 -16 8 -4 3 -13 -13 -26 -32 -25 -37 -24 -23 4 21
39 28 47 40 47 8 0 8 -3 -2 -9z m144 -1 c-3 -5 -11 -10 -16 -10 -6 0 -7 5 -4
10 3 6 11 10 16 10 6 0 7 -4 4 -10z m-57 -22 c-3 -7 -13 -13 -24 -14 -11 -1
-30 -7 -43 -13 -12 -7 -25 -10 -28 -7 -6 5 73 45 90 46 5 0 7 -6 5 -12z m-868
-18 c0 -5 -5 -10 -11 -10 -5 0 -7 5 -4 10 3 6 8 10 11 10 2 0 4 -4 4 -10z
m-1536 -30 c-6 -6 -35 -13 -65 -15 l-54 -5 45 14 c56 18 88 20 74 6z m354 5
c-11 -11 -68 -23 -68 -15 0 5 6 11 13 13 16 7 62 8 55 2z m1888 -22 c-10 -10
-19 5 -10 18 6 11 8 11 12 0 2 -7 1 -15 -2 -18z m-108 -5 c11 -10 17 -38 8
-38 -16 0 -36 15 -36 27 0 10 -6 12 -20 8 -15 -5 -18 -3 -14 10 7 16 36 13 62
-7z m157 2 c-3 -5 -11 -10 -16 -10 -6 0 -7 5 -4 10 3 6 11 10 16 10 6 0 7 -4
4 -10z m-534 -43 c-13 -13 -15 1 -4 30 7 17 8 17 11 -1 2 -10 -1 -23 -7 -29z
m219 23 c0 -5 -4 -10 -10 -10 -5 0 -10 5 -10 10 0 6 5 10 10 10 6 0 10 -4 10
-10z m129 -19 c17 -17 18 -20 3 -25 -10 -3 -24 -9 -32 -13 -13 -6 -13 -4 0 12
14 17 13 18 -3 12 -53 -20 -67 -20 -67 2 0 24 10 27 28 9 10 -9 16 -8 29 5 21
21 19 21 42 -2z m-2546 2 c-7 -2 -19 -2 -25 0 -7 3 -2 5 12 5 14 0 19 -2 13
-5z m317 3 c0 -2 -13 -6 -29 -8 -17 -2 -28 -1 -25 4 5 8 54 12 54 4z m290 -8
c-41 -17 -216 -66 -257 -72 -55 -9 -25 3 122 45 127 37 185 48 135 27z m2050
-18 c0 -5 -7 -7 -15 -4 -8 4 -12 10 -9 15 6 11 24 2 24 -11z m-327 -7 c-7 -2
-19 -2 -25 0 -7 3 -2 5 12 5 14 0 19 -2 13 -5z m71 -4 c17 14 19 11 10 -13 -4
-11 -19 -16 -48 -16 l-41 1 24 20 c18 15 26 17 32 8 6 -10 11 -10 23 0z
m-2151 -56 c-7 -2 -19 -2 -25 0 -7 3 -2 5 12 5 14 0 19 -2 13 -5z"/>
<path d="M9026 4935 c-11 -8 -15 -15 -9 -15 6 0 16 7 23 15 16 19 11 19 -14 0z"/>
<path d="M13398 4714 c-52 -43 -155 -150 -177 -184 -8 -14 -21 -29 -28 -33 -7
-4 -34 -36 -59 -70 -26 -34 -69 -85 -95 -113 -25 -27 -54 -65 -64 -84 -10 -18
-35 -56 -56 -83 -22 -27 -39 -52 -39 -57 0 -4 -13 -22 -29 -39 -16 -17 -39
-52 -51 -78 -12 -27 -34 -61 -50 -78 -40 -43 -144 -215 -121 -201 14 9 14 3 0
-28 -7 -14 -16 -23 -20 -20 -4 2 -15 -17 -23 -43 -8 -26 -28 -81 -45 -122 -17
-41 -38 -97 -46 -125 -13 -45 -13 -49 0 -32 13 17 15 17 15 4 0 -9 -6 -23 -13
-30 -16 -16 -41 -90 -58 -173 -7 -33 -18 -72 -26 -87 -7 -15 -13 -46 -13 -68
0 -30 -6 -46 -21 -58 -19 -16 -20 -29 -22 -169 -1 -110 1 -155 11 -164 14 -15
17 -63 2 -54 -5 3 -8 -20 -7 -60 1 -36 5 -65 8 -65 3 0 4 -11 2 -24 -3 -13 0
-27 6 -30 6 -4 11 -1 11 6 0 8 3 9 8 3 4 -6 19 -16 35 -22 15 -7 27 -19 27
-27 0 -16 31 -24 110 -28 l55 -2 23 42 c13 23 30 42 39 42 10 0 14 6 10 20 -3
13 1 21 14 25 10 4 19 11 19 16 0 6 -6 7 -12 4 -7 -4 -5 0 6 9 10 8 24 23 30
34 6 10 20 33 31 52 11 18 35 50 53 70 33 38 42 57 20 43 -20 -12 21 49 52 77
15 14 48 53 74 88 44 57 66 80 51 50 -23 -45 42 51 76 112 60 107 208 301 209
274 0 -6 -27 -42 -61 -80 -82 -93 -115 -144 -44 -69 91 96 155 175 155 190 0
8 13 21 29 30 17 8 49 38 73 67 24 28 55 65 71 81 15 15 27 32 27 37 0 5 21
27 48 49 46 40 70 53 56 30 -35 -57 -72 -487 -44 -504 6 -4 18 -24 27 -46 8
-22 35 -57 60 -79 36 -31 55 -40 100 -46 145 -18 346 26 483 106 96 56 301
204 412 297 53 45 106 87 118 93 20 11 21 10 15 -12 -4 -12 -23 -53 -41 -90
-88 -176 -142 -372 -159 -583 -6 -66 -4 -73 28 -129 18 -33 42 -64 53 -70 10
-6 21 -13 24 -16 27 -27 142 -42 165 -22 6 5 35 14 65 21 68 17 97 32 132 68
15 15 41 42 58 60 44 45 38 59 -14 29 -71 -41 -127 -49 -212 -30 -41 9 -74 20
-74 25 0 5 -6 9 -14 9 -14 0 -26 21 -26 43 0 9 2 9 8 0 4 -6 6 23 4 65 -4 94
22 212 122 552 47 163 81 229 161 320 73 84 83 106 63 147 -11 22 -21 28 -50
30 -31 2 -43 -5 -80 -40 -58 -56 -125 -107 -142 -107 -14 0 -136 -87 -164
-117 -9 -10 -12 -12 -7 -3 6 8 -32 -28 -84 -80 -51 -52 -88 -84 -81 -72 15 30
6 41 -12 13 -7 -12 -18 -21 -24 -21 -6 0 -16 -12 -22 -26 -7 -14 -30 -33 -55
-44 -23 -10 -66 -39 -95 -64 -30 -26 -57 -44 -62 -41 -8 5 -46 -33 -42 -44 1
-3 -1 -6 -5 -6 -5 -1 -22 -9 -40 -18 -18 -9 -36 -17 -40 -16 -4 1 -17 1 -28 0
-14 -1 -16 -4 -7 -9 17 -11 -31 -34 -78 -38 -19 -1 -69 -7 -110 -13 -90 -13
-140 -6 -140 19 0 10 -10 24 -22 32 -21 14 -22 18 -10 50 8 23 9 44 4 59 -12
31 -3 146 9 127 6 -9 9 -3 8 17 -3 53 23 189 42 223 21 37 23 46 9 37 -13 -8
-13 -2 4 30 9 18 16 22 20 13 3 -7 3 -3 0 10 -7 28 5 84 16 77 10 -6 20 29 20
70 0 37 -32 91 -59 100 -12 3 -21 13 -21 21 0 16 -16 19 -25 4 -3 -5 -19 -10
-35 -10 -15 0 -30 -6 -33 -14 -3 -8 -27 -29 -54 -46 -26 -18 -59 -45 -73 -60
-46 -50 -181 -161 -189 -155 -5 2 -15 -3 -22 -13 -13 -16 -13 -16 6 -2 19 14
19 14 6 -2 -7 -10 -17 -15 -22 -12 -5 2 -24 -17 -43 -43 -19 -26 -51 -59 -70
-72 -20 -13 -38 -31 -41 -40 -3 -10 -36 -47 -73 -82 -76 -73 -128 -136 -118
-146 3 -4 12 -1 18 5 7 7 19 12 27 12 9 0 -4 -13 -29 -29 -25 -15 -55 -46 -67
-67 -12 -21 -44 -64 -72 -94 l-51 -55 57 85 c64 97 60 95 -26 -10 -33 -41 -82
-100 -108 -130 l-47 -55 54 50 c43 40 48 43 29 17 -13 -19 -39 -54 -56 -79
-29 -40 -38 -45 -34 -20 3 17 -10 3 -59 -64 -38 -52 -55 -68 -63 -60 -8 8 -8
14 0 22 6 6 9 18 6 25 -3 8 0 14 6 14 6 0 11 18 11 43 0 23 5 60 10 82 6 22
14 69 19 104 8 50 16 70 36 87 19 16 28 37 35 80 5 32 7 60 5 63 -3 2 -5 -4
-6 -15 0 -10 -3 -14 -5 -7 -3 6 4 30 15 52 12 22 21 53 21 68 0 15 11 54 24
85 13 31 19 59 14 60 -4 2 3 36 16 76 26 75 66 155 74 147 3 -2 0 -10 -5 -17
-13 -17 -46 -129 -39 -135 2 -3 10 15 16 38 6 24 16 55 22 69 6 14 12 34 13
46 3 21 110 200 168 282 17 23 45 51 64 62 18 10 33 25 33 31 0 7 -9 4 -21 -7
-36 -32 86 160 171 271 45 57 89 106 99 110 10 3 36 27 57 54 21 27 48 52 59
55 16 5 17 8 6 15 -10 6 -10 10 -1 16 6 4 15 17 19 28 7 18 2 26 -22 44 -16
12 -34 20 -38 17 -5 -3 -9 2 -9 10 0 30 -55 19 -102 -20z m25 -189 c-3 -9 -8
-14 -10 -11 -3 3 -2 9 2 15 9 16 15 13 8 -4z m-83 -18 c0 -2 -10 -12 -22 -23
l-23 -19 19 23 c18 21 26 27 26 19z m-156 -194 c-2 -47 -4 -53 -15 -53 -6 0
-9 6 -6 14 3 8 2 16 -4 18 -5 2 -2 13 6 26 20 28 21 28 19 -5z m-21 -138 c-3
-9 -8 -14 -10 -11 -3 3 -2 9 2 15 9 16 15 13 8 -4z m-73 -14 c0 -5 -18 -28
-39 -52 -22 -24 -49 -55 -61 -69 l-22 -25 19 33 c21 35 91 122 98 122 3 0 5
-4 5 -9z m-6 -110 c-26 -39 -49 -71 -51 -71 -7 0 56 112 75 133 33 38 21 5
-24 -62z m-138 -119 c-8 -16 -23 -35 -32 -43 -16 -12 -17 -12 -9 1 16 28 46
70 51 70 2 0 -2 -13 -10 -28z m-96 -84 c0 -19 -18 -44 -25 -36 -4 3 0 15 7 27
15 24 18 26 18 9z m873 -32 c3 -8 -1 -20 -9 -27 -12 -10 -14 -8 -10 12 6 30 5
29 10 29 2 0 6 -6 9 -14z m-28 -16 c-3 -5 -10 -10 -16 -10 -5 0 -9 5 -9 10 0
6 7 10 16 10 8 0 12 -4 9 -10z m-804 -43 c-10 -9 -11 -8 -5 6 3 10 9 15 12 12
3 -3 0 -11 -7 -18z m-81 -24 c-11 -21 -30 -49 -41 -63 -20 -24 -20 -24 -9 -2
6 13 10 26 7 28 -3 4 53 72 61 73 2 1 -6 -16 -18 -36z m-132 -14 c-6 -16 -12
-28 -14 -26 -5 5 13 57 20 57 3 0 0 -14 -6 -31z m972 23 c0 -5 -7 -17 -16 -28
-8 -10 -14 -14 -11 -9 2 6 7 18 10 28 7 17 17 23 17 9z m-79 -55 c-6 -8 -8
-17 -4 -20 3 -4 1 -7 -5 -7 -15 0 -15 13 0 28 16 16 23 15 9 -1z m-66 -73
c-22 -19 -48 -40 -59 -45 -18 -11 -18 -10 -2 12 20 30 87 81 95 73 3 -3 -12
-21 -34 -40z m-95 -20 c-25 -25 -58 -55 -75 -66 -16 -11 2 10 40 46 81 76 99
86 35 20z m55 -54 c-3 -5 -13 -10 -21 -10 -8 0 -12 5 -9 10 3 6 13 10 21 10 8
0 12 -4 9 -10z m-94 -13 c-6 -8 -9 -16 -6 -19 3 -3 -4 -13 -15 -23 -32 -29
-36 -8 -5 25 29 30 47 42 26 17z m-76 -47 c0 -7 -20 -29 -45 -48 l-45 -36 36
39 c20 22 34 46 32 54 -4 8 0 12 8 9 8 -3 14 -10 14 -18z m119 -1 c-10 -12
-32 -30 -49 -41 -19 -12 -13 -4 15 21 49 44 64 53 34 20z m-714 -41 c0 -44 3
-63 12 -75 6 -7 3 -13 -11 -18 -10 -3 -24 -18 -29 -33 -6 -15 -17 -36 -26 -47
-9 -11 -5 4 9 35 14 30 25 69 25 85 0 31 10 75 16 75 2 0 4 -10 4 -22z m2040
-22 c0 -2 -7 -7 -16 -10 -8 -3 -12 -2 -9 4 6 10 25 14 25 6z m-1481 -51 c-17
-24 -43 -54 -57 -67 l-25 -23 13 24 c12 24 89 111 97 111 2 0 -10 -20 -28 -45z
m61 15 c0 -17 -72 -90 -82 -84 -5 4 9 26 33 50 46 47 49 49 49 34z m-603 -125
c-3 -19 -14 -43 -23 -53 -14 -13 -17 -13 -12 -2 3 8 11 32 19 53 16 47 23 48
16 2z m423 -36 c-15 -27 -99 -119 -152 -166 l-43 -38 34 40 c19 22 44 49 55
61 12 11 40 44 64 72 46 55 60 66 42 31z m-60 -8 c-5 -11 -15 -23 -21 -27 -6
-3 -3 5 6 20 20 30 30 35 15 7z m-447 -36 c-3 -9 -8 -14 -10 -11 -3 3 -2 9 2
15 9 16 15 13 8 -4z m14 -37 c-3 -7 -5 -2 -5 12 0 14 2 19 5 13 2 -7 2 -19 0
-25z m394 9 c-10 -9 -11 -8 -5 6 3 10 9 15 12 12 3 -3 0 -11 -7 -18z m-446
-66 c-4 -23 -10 -41 -15 -41 -4 0 -18 -25 -31 -55 -12 -30 -24 -53 -25 -52 -7
6 37 137 46 137 4 0 11 14 15 31 10 44 18 28 10 -20z m446 -18 c-6 -10 -22
-31 -36 -48 l-26 -30 17 30 c19 32 45 65 51 65 2 0 -1 -8 -6 -17z m1826 -15
c-3 -8 -6 -5 -6 6 -1 11 2 17 5 13 3 -3 4 -12 1 -19z m-1945 -30 c-7 -7 -12
-8 -12 -2 0 14 12 26 19 19 2 -3 -1 -11 -7 -17z m-318 -15 c-6 -26 -12 -39
-50 -115 -8 -14 -14 -34 -14 -45 0 -13 5 -9 16 12 19 37 40 59 30 32 -3 -10
-6 -27 -6 -37 0 -10 -16 -37 -35 -61 -24 -27 -34 -48 -29 -58 13 -32 17 -64 7
-58 -26 16 -19 139 12 202 8 18 21 57 29 86 8 30 15 47 16 39 1 -10 5 -7 12 8
15 30 20 28 12 -5z m-94 -55 c0 -16 -3 -19 -11 -11 -6 6 -8 16 -5 22 11 17 16
13 16 -11z m410 -22 c0 -2 -8 -10 -17 -17 -16 -13 -17 -12 -4 4 13 16 21 21
21 13z m-51 -33 c-42 -57 -69 -77 -69 -53 0 6 5 10 11 10 6 0 22 14 36 30 26
32 44 42 22 13z m-129 -47 c0 -2 -8 -10 -17 -17 -16 -13 -17 -12 -4 4 13 16
21 21 21 13z m2017 -113 c-2 -16 -4 -3 -4 27 0 30 2 43 4 28 2 -16 2 -40 0
-55z m-2057 43 c0 -3 -4 -8 -10 -11 -5 -3 -10 -1 -10 4 0 6 5 11 10 11 6 0 10
-2 10 -4z m-213 -58 c-2 -13 -4 -5 -4 17 -1 22 1 32 4 23 2 -10 2 -28 0 -40z
m297 27 c-4 -8 -11 -15 -16 -15 -6 0 -5 6 2 15 7 8 14 15 16 15 2 0 1 -7 -2
-15z m-74 -55 c-6 -11 -13 -20 -16 -20 -2 0 0 9 6 20 6 11 13 20 16 20 2 0 0
-9 -6 -20z m-37 -77 c-11 -31 -15 -35 -24 -22 -4 8 -3 19 3 26 15 19 28 16 21
-4z m39 -15 c-7 -7 -12 -8 -12 -2 0 14 12 26 19 19 2 -3 -1 -11 -7 -17z m-222
-288 c0 -5 -5 -10 -11 -10 -5 0 -7 5 -4 10 3 6 8 10 11 10 2 0 4 -4 4 -10z"/>
<path d="M16315 4638 c-32 -17 -45 -39 -45 -77 0 -20 -9 -51 -20 -69 -16 -27
-20 -48 -18 -95 l3 -62 51 -3 c48 -3 53 -1 80 33 16 19 42 51 58 70 28 34 29
39 23 108 -5 57 -11 76 -28 90 -24 19 -74 22 -104 5z"/>
<path d="M17828 4451 c-96 -31 -249 -134 -229 -154 7 -7 36 2 93 28 78 37 89
39 178 40 116 0 136 -10 177 -92 26 -53 28 -69 31 -188 3 -91 -1 -152 -12
-204 -18 -84 -87 -233 -126 -270 -14 -13 -18 -20 -10 -16 8 5 3 -4 -12 -20
-15 -17 -41 -46 -58 -65 -18 -19 -29 -29 -25 -23 3 7 -30 -23 -74 -67 -58 -58
-87 -80 -105 -80 -14 0 -26 -5 -26 -12 0 -28 -20 12 -39 77 -31 110 -51 159
-71 175 -11 8 -35 45 -53 82 -19 37 -48 86 -66 110 -54 73 -139 200 -177 266
-20 35 -41 61 -48 59 -14 -5 -13 -15 13 -109 11 -42 20 -87 20 -100 -1 -13 3
-43 9 -68 17 -69 31 -140 38 -189 6 -35 4 -42 -6 -36 -10 6 -12 4 -6 -10 17
-46 26 -108 17 -119 -10 -11 21 -195 36 -219 9 -14 22 -149 16 -164 -3 -7 -11
-13 -19 -13 -8 0 -14 -4 -14 -10 0 -5 -3 -10 -8 -10 -4 0 -127 -61 -272 -136
-146 -74 -257 -133 -247 -130 10 3 15 2 12 -3 -3 -5 -54 -28 -113 -52 -59 -23
-132 -54 -162 -69 -30 -15 -86 -37 -124 -48 -37 -12 -78 -30 -90 -41 -12 -11
-48 -29 -81 -40 -33 -11 -87 -30 -120 -42 -33 -12 -73 -25 -90 -30 -81 -22
382 12 505 37 277 57 697 205 748 264 9 11 23 20 31 20 7 0 38 14 68 31 38 22
57 28 66 21 11 -10 49 -87 92 -187 23 -56 65 -115 81 -115 16 0 48 -46 40 -58
-7 -11 75 -115 110 -139 15 -10 57 -49 95 -87 38 -38 72 -67 75 -63 4 4 1 14
-7 23 -13 16 -12 16 8 6 12 -7 25 -16 28 -22 3 -5 20 -19 38 -31 l32 -23 -24
27 c-29 32 -20 35 19 7 19 -14 31 -17 35 -9 4 5 14 7 24 3 26 -11 135 -33 140
-28 2 2 -1 4 -7 4 -22 0 -12 20 13 26 24 6 25 8 10 24 -15 17 -13 18 40 16 49
-1 60 2 76 23 18 21 18 26 4 41 -8 9 -15 24 -15 33 0 9 -4 17 -10 17 -5 0 -10
6 -10 14 0 8 -25 36 -56 63 -92 79 -128 115 -183 181 -54 66 -61 71 -35 21 8
-17 13 -33 11 -36 -3 -2 -11 6 -17 19 -7 12 -25 33 -41 46 -16 13 -34 33 -40
45 -6 14 2 9 22 -13 44 -48 28 -22 -58 97 -43 60 -93 145 -120 205 l-46 102
93 89 c51 48 118 107 148 130 30 23 63 57 73 76 10 19 31 50 47 70 43 53 106
175 142 271 43 114 49 246 20 391 -29 141 -54 201 -110 262 -93 102 -199 136
-312 98z m332 -721 c0 -5 -5 -10 -11 -10 -5 0 -7 5 -4 10 3 6 8 10 11 10 2 0
4 -4 4 -10z m-712 -235 c-3 -3 -9 2 -12 12 -6 14 -5 15 5 6 7 -7 10 -15 7 -18z
m-158 -32 c0 -5 -5 -15 -10 -23 -8 -12 -10 -11 -10 8 0 12 5 22 10 22 6 0 10
-3 10 -7z m690 -13 c-6 -11 -15 -20 -20 -20 -6 0 -5 9 2 20 7 11 16 20 21 20
4 0 3 -9 -3 -20z m-547 -10 c3 -11 1 -18 -4 -14 -5 3 -9 12 -9 20 0 20 7 17
13 -6z m51 -105 c9 -27 12 -45 7 -40 -4 6 -16 32 -25 60 -9 27 -12 45 -7 40 4
-6 16 -32 25 -60z m39 -20 l6 -30 -14 30 c-16 34 -21 72 -6 45 5 -8 11 -28 14
-45z m462 25 c-10 -11 -23 -20 -28 -20 -6 0 -2 9 8 20 10 11 23 20 28 20 6 0
2 -9 -8 -20z m-225 -114 c0 -2 -8 -10 -17 -17 -16 -13 -17 -12 -4 4 13 16 21
21 21 13z m-4 -313 c-3 -4 -13 10 -21 30 -21 51 -18 59 6 14 11 -22 18 -41 15
-44z m-436 33 c0 -2 -7 -7 -16 -10 -8 -3 -12 -2 -9 4 6 10 25 14 25 6z m370
-28 c0 -5 -4 -8 -10 -8 -5 0 -10 10 -10 23 0 18 2 19 10 7 5 -8 10 -18 10 -22z
m-80 -4 c0 -8 -4 -12 -10 -9 -5 3 -10 13 -10 21 0 8 5 12 10 9 6 -3 10 -13 10
-21z m34 -11 c9 -18 12 -33 7 -33 -5 0 -14 14 -20 31 -19 54 -14 54 13 2z
m-359 -13 c-7 -11 -65 -43 -65 -36 0 4 62 45 68 46 2 0 0 -5 -3 -10z m475 -74
c-1 -17 -2 -18 -9 -6 -5 8 -12 26 -15 40 -7 24 -6 24 8 6 9 -11 16 -29 16 -40z
m64 8 c3 -8 2 -12 -4 -9 -6 3 -10 10 -10 16 0 14 7 11 14 -7z m-697 -21 c-9
-9 -87 -43 -87 -38 0 6 72 44 84 45 5 0 6 -3 3 -7z m618 -103 c18 -19 47 -51
64 -70 26 -30 23 -21 -20 58 -29 51 -49 95 -47 98 6 6 112 -162 122 -192 9
-30 96 -139 131 -165 l30 -23 -27 30 c-14 16 -28 38 -30 49 -1 11 -6 22 -9 25
-4 3 -10 16 -14 30 -4 15 15 -4 46 -45 37 -48 68 -77 98 -91 39 -19 69 -49 59
-59 -2 -2 -23 5 -47 16 -55 24 -62 19 -16 -12 19 -13 35 -30 35 -36 0 -27 -35
-11 -76 34 -24 26 -46 44 -49 41 -3 -3 1 -11 10 -18 8 -7 15 -17 15 -23 0 -6
-17 5 -37 24 -21 19 -55 48 -76 63 -21 15 -36 33 -34 39 9 25 -107 179 -131
175 -9 -2 -49 80 -57 118 l-6 29 17 -30 c9 -16 32 -46 49 -65z m69 -131 c34
-48 29 -63 -6 -17 -34 45 -41 58 -31 58 4 0 21 -19 37 -41z m-190 -35 c3 -8 2
-12 -4 -9 -6 3 -10 10 -10 16 0 14 7 11 14 -7z m487 -60 c8 -10 34 -30 58 -46
34 -21 40 -28 24 -28 -27 0 -97 53 -132 100 l-26 34 31 -21 c17 -12 37 -30 45
-39z m-369 -119 c9 -17 9 -18 -3 -8 -8 6 -22 26 -32 45 l-19 33 21 -25 c12
-14 27 -34 33 -45z"/>
<path d="M13236 4243 c-6 -14 -5 -15 5 -6 7 7 10 15 7 18 -3 3 -9 -2 -12 -12z"/>
<path d="M8119 4163 c-13 -16 -12 -17 4 -4 16 13 21 21 13 21 -2 0 -10 -8 -17
-17z"/>
<path d="M8062 4087 c-24 -25 -28 -37 -13 -37 5 0 16 14 25 30 17 36 16 37
-12 7z"/>
<path d="M15980 4069 c-50 -23 -61 -32 -50 -39 13 -9 13 -10 0 -11 -8 -1 -21
-1 -27 0 -7 1 -13 -5 -13 -14 0 -8 -4 -15 -10 -15 -5 0 -7 -6 -4 -14 3 -7 -7
-21 -21 -30 -35 -23 -89 -112 -55 -91 19 12 9 -12 -91 -210 -104 -206 -116
-228 -105 -185 6 19 5 21 -3 10 -6 -8 -8 -23 -5 -32 3 -10 -4 -26 -15 -37 -12
-12 -21 -27 -21 -34 0 -7 -23 -68 -51 -136 -28 -67 -48 -129 -45 -137 5 -12
-19 -107 -32 -129 -7 -11 -8 -17 -10 -58 -1 -16 -6 -25 -12 -22 -5 3 -10 3
-10 -2 -1 -4 -5 -27 -9 -51 -5 -24 -5 -40 -1 -35 5 4 10 19 13 33 4 24 10 -46
13 -155 2 -72 3 -77 14 -70 6 4 10 -7 10 -24 0 -17 4 -31 8 -31 5 0 13 -17 20
-37 10 -34 10 -35 6 -5 -4 19 -1 32 5 32 6 0 11 -10 11 -23 0 -27 29 -72 30
-47 0 10 7 7 20 -10 13 -17 20 -20 20 -10 0 12 3 11 11 -3 14 -24 62 -47 100
-47 26 0 29 2 20 14 -10 12 -6 13 27 9 24 -3 42 -1 46 6 4 6 16 11 27 11 26 0
24 14 -6 34 -33 22 -118 171 -85 151 16 -10 11 41 -5 55 -8 7 -14 26 -14 44 2
30 2 30 6 4 2 -16 9 -28 14 -28 5 0 7 28 3 69 -5 48 -2 84 9 122 8 30 24 95
36 146 11 51 46 150 76 220 64 147 73 169 50 130 -22 -39 -29 -28 -10 16 8 20
15 47 15 60 0 13 6 31 13 41 11 15 13 7 11 -51 -1 -56 -6 -78 -31 -123 -17
-30 -34 -66 -37 -80 -4 -14 13 11 38 55 25 44 46 89 46 100 0 11 14 49 30 84
31 64 35 99 5 42 -21 -42 -29 -39 -11 4 9 21 11 35 5 35 -6 0 -7 5 -4 10 4 6
10 8 15 5 12 -7 37 31 65 102 16 39 20 60 13 64 -6 4 6 15 27 24 31 15 38 16
45 4 10 -15 18 -1 30 55 4 17 11 30 17 29 6 -1 21 10 34 25 l24 27 -27 -24
c-16 -14 -28 -20 -28 -14 0 6 6 16 14 22 16 13 19 71 4 71 -5 0 -4 10 3 21 8
15 8 19 0 15 -6 -4 -11 0 -11 8 0 9 -4 16 -10 16 -5 0 -10 10 -10 21 0 17 -3
19 -14 10 -11 -10 -16 -8 -24 5 -6 11 -17 15 -31 11 -12 -3 -24 0 -29 8 -5 10
-21 7 -72 -16z m143 -263 c-5 -9 -13 -12 -20 -8 -10 6 -9 14 4 32 15 21 18 22
21 8 2 -10 0 -24 -5 -32z m-150 -7 c-8 -16 -17 -28 -20 -25 -6 5 23 56 31 56
3 0 -2 -14 -11 -31z m-32 -106 c-12 -20 -14 -14 -5 12 4 9 9 14 11 11 3 -2 0
-13 -6 -23z m-54 -80 c-14 -32 -28 -65 -31 -73 -11 -26 -58 -96 -52 -77 3 11
9 31 13 45 3 14 16 41 29 59 13 19 21 40 18 47 -5 13 35 71 43 62 3 -2 -6 -31
-20 -63z m-52 -33 c-9 -18 -19 -30 -21 -27 -3 3 2 19 11 37 9 18 19 30 21 27
3 -3 -2 -19 -11 -37z m-28 -62 c-3 -8 -6 -5 -6 6 -1 11 2 17 5 13 3 -3 4 -12
1 -19z m-44 -33 c-3 -9 -8 -14 -10 -11 -3 3 -2 9 2 15 9 16 15 13 8 -4z m-1
-113 c-26 -36 -61 -133 -72 -197 -4 -27 -13 -63 -20 -80 -6 -16 -27 -82 -45
-145 -31 -106 -34 -111 -36 -70 l-1 45 -10 -37 c-6 -21 -15 -38 -20 -38 -6 0
-8 9 -5 20 3 11 1 20 -3 20 -11 0 15 90 41 145 18 38 18 35 3 -29 -5 -22 -4
-28 7 -24 8 3 28 43 46 89 36 94 38 103 21 93 -8 -5 -9 -2 -5 10 4 9 14 42 23
73 18 61 49 121 73 141 23 19 24 14 3 -16z m56 -71 c-26 -32 -33 -32 -23 -2 3
11 14 22 23 24 9 3 18 5 20 6 2 0 -7 -12 -20 -28z m-55 -16 c-9 -19 -18 -33
-21 -31 -4 5 26 66 33 66 3 0 -3 -16 -12 -35z m-26 -207 c-3 -8 -6 -5 -6 6 -1
11 2 17 5 13 3 -3 4 -12 1 -19z m-47 -85 c-11 -17 -11 -17 -6 0 3 10 6 24 7
30 0 9 2 9 5 0 3 -7 0 -20 -6 -30z m1 -113 c-9 -22 -10 -20 -10 21 -1 25 2 49
7 53 11 12 14 -47 3 -74z m-24 -67 c-3 -10 -5 -4 -5 12 0 17 2 24 5 18 2 -7 2
-21 0 -30z m-70 -95 c-1 -35 2 -90 7 -123 8 -55 8 -59 -8 -46 -9 7 -16 21 -16
30 0 9 -7 29 -15 45 -16 31 -20 70 -6 62 5 -3 11 13 15 36 6 40 13 58 21 58 2
0 3 -28 2 -62z"/>
<path d="M13118 4048 c-22 -33 -39 -68 -35 -68 8 0 60 81 55 85 -3 3 -12 -5
-20 -17z"/>
<path d="M7918 3883 c-17 -20 -38 -58 -38 -69 0 -6 30 36 54 74 11 18 2 15
-16 -5z"/>
<path d="M15720 3710 c-11 -22 -18 -40 -15 -40 2 0 14 18 25 40 11 22 18 40
15 40 -2 0 -14 -18 -25 -40z"/>
<path d="M7786 3621 c-10 -11 -16 -26 -14 -33 3 -8 11 -2 23 15 21 33 15 45
-9 18z"/>
<path d="M13329 3603 c-13 -16 -12 -17 4 -4 16 13 21 21 13 21 -2 0 -10 -8
-17 -17z"/>
<path d="M15995 3539 c-9 -17 -15 -33 -13 -35 3 -2 12 12 21 31 21 43 13 47
-8 4z"/>
<path d="M13277 3553 c-4 -3 -7 -11 -7 -17 0 -6 5 -5 12 2 6 6 9 14 7 17 -3 3
-9 2 -12 -2z"/>
<path d="M13604 3508 l-29 -33 33 29 c30 28 37 36 29 36 -2 0 -16 -15 -33 -32z"/>
<path d="M11190 3490 c-8 -5 -11 -12 -7 -16 4 -4 15 0 24 9 18 18 8 23 -17 7z"/>
<path d="M7735 3371 c3 -24 10 -51 16 -60 7 -11 8 -3 3 29 -3 25 -11 52 -16
60 -6 10 -7 1 -3 -29z"/>
<path d="M13017 3275 c-15 -14 -24 -25 -19 -25 5 0 19 11 32 25 30 32 23 32
-13 0z"/>
<path d="M7752 3140 c0 -14 2 -19 5 -12 2 6 2 18 0 25 -3 6 -5 1 -5 -13z"/>
<path d="M12858 3073 c-19 -23 -31 -43 -24 -43 2 0 14 14 26 30 23 33 22 40
-2 13z"/>
<path d="M17785 3005 c8 -19 22 -52 31 -72 19 -45 85 -145 92 -139 2 3 -12 31
-31 63 -19 32 -49 86 -66 121 -33 66 -51 85 -26 27z"/>
<path d="M7822 2828 c15 -22 47 -41 34 -19 -4 6 -2 11 5 11 8 0 8 4 -1 15 -7
8 -21 15 -32 15 -19 0 -19 -2 -6 -22z"/>
<path d="M7920 2780 c0 -5 5 -10 11 -10 5 0 7 5 4 10 -3 6 -8 10 -11 10 -2 0
-4 -4 -4 -10z"/>
<path d="M11248 2613 c7 -3 16 -2 19 1 4 3 -2 6 -13 5 -11 0 -14 -3 -6 -6z"/>
<path d="M17545 2510 c3 -5 8 -10 11 -10 2 0 4 5 4 10 0 6 -5 10 -11 10 -5 0
-7 -4 -4 -10z"/>
<path d="M10745 2250 c-8 -12 2 -30 17 -30 7 0 23 -10 36 -22 l24 -23 -7 24
c-7 23 -42 60 -57 61 -4 0 -10 -4 -13 -10z"/>
</g>
</svg>
